<svg xmlns="http://www.w3.org/2000/svg" version="1.1" xmlns:xlink="http://www.w3.org/1999/xlink" xmlns:svgjs="http://svgjs.dev/svgjs" width="2000" height="303" viewBox="0 0 2000 303"><g transform="matrix(1,0,0,1,-1.211842903965021,0.4070710799528854)"><svg viewBox="0 0 396 60" data-background-color="#ffffff" preserveAspectRatio="xMidYMid meet" height="303" width="2000" xmlns="http://www.w3.org/2000/svg" xmlns:xlink="http://www.w3.org/1999/xlink"><g id="tight-bounds" transform="matrix(1,0,0,1,0.2400551050149602,-0.08060813464413741)"><svg viewBox="0 0 395.52 60.16088414987391" height="60.16088414987391" width="395.52"><g><svg viewBox="0 0 461.4691259678846 70.19212840336134" height="60.16088414987391" width="395.52"><g transform="matrix(1,0,0,1,65.94912596788457,9.700938151260505)"><svg viewBox="0 0 395.52000000000004 50.79025210084033" height="50.79025210084033" width="395.52000000000004"><g id="textblocktransform"><svg viewBox="0 0 395.52000000000004 50.79025210084033" height="50.79025210084033" width="395.52000000000004" id="textblock"><g><svg viewBox="0 0 395.52000000000004 50.79025210084033" height="50.79025210084033" width="395.52000000000004"><g transform="matrix(1,0,0,1,0,0)"><svg width="395.52000000000004" viewBox="4.2 -38 380.76 48.9" height="50.79025210084033" data-palette-color="#000000"><path d="M10.6 0L4.2 0 4.2-34.85 22.4-34.85 22.4-29.35 10.6-29.35 10.6-20.2 20.9-20.2 20.9-14.6 10.6-14.6 10.6 0ZM36.8 0.5L36.8 0.5Q31.3 0.5 28.3-2.95 25.3-6.4 25.3-12.5L25.3-12.5Q25.3-18.65 28.4-22.08 31.5-25.5 37-25.5L37-25.5Q42.52-25.5 45.41-21.96 48.3-18.43 48.3-12.5L48.3-12.5Q48.3-6.58 45.31-3.04 42.32 0.5 36.8 0.5ZM36.9-4.5L36.9-4.5Q41.65-4.5 41.65-12.5L41.65-12.5Q41.65-20.55 36.9-20.55L36.9-20.55Q34.55-20.55 33.25-18.69 31.95-16.82 31.95-12.5L31.95-12.5Q31.95-8.2 33.25-6.35 34.55-4.5 36.9-4.5ZM64 0.5L64 0.5Q58.5 0.5 55.5-2.95 52.5-6.4 52.5-12.5L52.5-12.5Q52.5-18.65 55.6-22.08 58.7-25.5 64.2-25.5L64.2-25.5Q69.72-25.5 72.61-21.96 75.5-18.43 75.5-12.5L75.5-12.5Q75.5-6.58 72.51-3.04 69.52 0.5 64 0.5ZM64.1-4.5L64.1-4.5Q68.85-4.5 68.85-12.5L68.85-12.5Q68.85-20.55 64.1-20.55L64.1-20.55Q61.75-20.55 60.45-18.69 59.15-16.82 59.15-12.5L59.15-12.5Q59.15-8.2 60.45-6.35 61.75-4.5 64.1-4.5ZM89.49 0.75L89.49 0.75Q85.27 0.75 83.78-1.45 82.29-3.65 82.29-8.1L82.29-8.1 82.29-19.65 79.04-19.65 79.04-24.9 82.54-24.9 82.89-30.15 88.34-32.5 88.34-24.9 94.49-24.9 94.49-19.65 88.34-19.65 88.34-8.25Q88.34-6.08 88.96-5.24 89.57-4.4 90.64-4.4L90.64-4.4Q91.74-4.4 92.97-4.98 94.19-5.55 94.89-6.15L94.89-6.15 96.09-1.1Q95.32-0.55 94.08-0.14 92.84 0.28 91.58 0.51 90.32 0.75 89.49 0.75ZM113.14 0.7L113.14 0.7Q110.44 0.7 108.73-1 107.02-2.7 106.44-4.95L106.44-4.95 106.44 0 100.94 0 100.94-38 106.94-38 106.94-24.9 106.44-20.6Q106.84-22.3 108.03-23.4 109.22-24.5 110.74-25.03 112.27-25.55 113.69-25.55L113.69-25.55Q118.34-25.55 120.72-22.26 123.09-18.98 123.09-12.55L123.09-12.55Q123.09-8.08 121.75-5.14 120.42-2.2 118.15-0.75 115.89 0.7 113.14 0.7ZM111.69-4.25L111.69-4.25Q112.92-4.25 114.03-5.06 115.14-5.88 115.84-7.7 116.54-9.53 116.54-12.55L116.54-12.55Q116.54-16.75 115.13-18.6 113.72-20.45 111.79-20.45L111.79-20.45Q109.47-20.45 108.25-18.06 107.04-15.68 107.04-12.15L107.04-12.15Q107.04-8.63 108.28-6.44 109.52-4.25 111.69-4.25ZM133.94 0.7L133.94 0.7Q131.64 0.7 130.13-0.33 128.61-1.35 127.88-3.05 127.14-4.75 127.14-6.8L127.14-6.8Q127.14-7.95 127.73-9.33 128.31-10.7 129.81-11.95 131.31-13.2 134.04-14 136.76-14.8 141.04-14.8L141.04-14.8 141.04-15.95Q141.04-17.8 140.15-19.03 139.26-20.25 136.59-20.25L136.59-20.25Q134.64-20.25 132.78-19.59 130.91-18.93 130.04-17.95L130.04-17.95 128.04-22.75Q129.54-23.78 132.05-24.64 134.56-25.5 137.64-25.5L137.64-25.5Q141.34-25.5 143.39-24.38 145.44-23.25 146.26-21.19 147.09-19.13 147.09-16.35L147.09-16.35 147.09 0 141.74 0 141.29-3.55Q138.69 0.7 133.94 0.7ZM136.59-4.1L136.59-4.1Q137.71-4.1 139-5.01 140.29-5.93 141.04-7.35L141.04-7.35 141.04-10.9Q140.79-10.95 140.5-10.95 140.21-10.95 139.84-10.95L139.84-10.95Q138.46-10.95 136.95-10.64 135.44-10.33 134.39-9.55 133.34-8.78 133.34-7.4L133.34-7.4Q133.34-5.6 134.14-4.85 134.94-4.1 136.59-4.1ZM159.99 0L153.89 0 153.89-38 159.99-38 159.99 0ZM173.68 0L167.58 0 167.58-38 173.68-38 173.68 0ZM197.43 0L191.03 0 191.03-34.85 197.43-34.85 197.43 0ZM211.58 0L205.18 0 205.18-24.9 210.93-24.9 211.08-21.6Q212.05-23.1 213.79-24.3 215.53-25.5 218.43-25.5L218.43-25.5Q220.95-25.5 222.63-24.38 224.3-23.25 225.15-21.2L225.15-21.2Q226.1-22.78 227.89-24.14 229.68-25.5 232.88-25.5L232.88-25.5Q236.63-25.5 238.48-23.1 240.33-20.7 240.33-16.45L240.33-16.45 240.33 0 233.98 0 233.98-15.8Q233.98-17.88 233.18-19.16 232.38-20.45 230.58-20.45L230.58-20.45Q228.83-20.45 227.4-19.16 225.98-17.88 225.98-15.8L225.98-15.8 225.98 0 219.58 0 219.58-15.8Q219.58-17.88 218.66-19.21 217.75-20.55 215.98-20.55L215.98-20.55Q214.18-20.55 212.88-19.21 211.58-17.88 211.58-15.8L211.58-15.8 211.58 0ZM253.67 10.9L247.62 10.9 247.62-24.9 253.57-24.9 253.57-24.1 253.07-20.6Q253.37-22.03 254.44-23.15 255.5-24.28 257.04-24.91 258.57-25.55 260.27-25.55L260.27-25.55Q265.22-25.55 267.5-22.09 269.77-18.63 269.77-12.8L269.77-12.8Q269.77-6.28 267.01-2.79 264.25 0.7 259.77 0.7L259.77 0.7Q257 0.7 255.34-1.03 253.67-2.75 253.07-4.95L253.07-4.95 253.67-0.25 253.67 10.9ZM258.32-4.25L258.32-4.25Q259.52-4.25 260.65-5.06 261.77-5.88 262.5-7.7 263.22-9.53 263.22-12.55L263.22-12.55Q263.22-16.75 261.79-18.6 260.35-20.45 258.42-20.45L258.42-20.45Q256.1-20.45 254.89-18.06 253.67-15.68 253.67-12.15L253.67-12.15Q253.67-8.63 254.91-6.44 256.15-4.25 258.32-4.25ZM285.52 0.5L285.52 0.5Q280.02 0.5 277.02-2.95 274.02-6.4 274.02-12.5L274.02-12.5Q274.02-18.65 277.12-22.08 280.22-25.5 285.72-25.5L285.72-25.5Q291.25-25.5 294.13-21.96 297.02-18.43 297.02-12.5L297.02-12.5Q297.02-6.58 294.03-3.04 291.05 0.5 285.52 0.5ZM285.62-4.5L285.62-4.5Q290.37-4.5 290.37-12.5L290.37-12.5Q290.37-20.55 285.62-20.55L285.62-20.55Q283.27-20.55 281.97-18.69 280.67-16.82 280.67-12.5L280.67-12.5Q280.67-8.2 281.97-6.35 283.27-4.5 285.62-4.5ZM309.62 0.45L309.62 0.45Q306.89 0.45 305.16-0.06 303.42-0.58 302.45-1.24 301.49-1.9 301.12-2.35L301.12-2.35 302.97-7.1Q304.07-6.2 305.78-5.33 307.49-4.45 309.77-4.45L309.77-4.45Q311.54-4.45 312.25-5.18 312.97-5.9 312.97-6.75L312.97-6.75Q312.97-7.93 311.34-8.88 309.72-9.83 307.57-10.75L307.57-10.75Q306.29-11.3 304.87-12.15 303.44-13 302.43-14.4 301.42-15.8 301.42-18L301.42-18Q301.42-21.38 303.88-23.39 306.34-25.4 310.87-25.4L310.87-25.4Q313.77-25.4 315.78-24.54 317.79-23.68 318.47-23L318.47-23 316.77-18.5Q315.79-19.25 314.29-19.93 312.79-20.6 311.07-20.6L311.07-20.6Q309.17-20.6 308.42-20.1 307.67-19.6 307.67-18.5L307.67-18.5Q307.67-17.28 309-16.49 310.34-15.7 312.22-14.95L312.22-14.95Q315.34-13.73 317.25-11.94 319.17-10.15 319.17-7.4L319.17-7.4Q319.17-5.35 318.22-3.56 317.27-1.78 315.17-0.66 313.07 0.45 309.62 0.45ZM332.87 0.75L332.87 0.75Q328.64 0.75 327.15-1.45 325.67-3.65 325.67-8.1L325.67-8.1 325.67-19.65 322.42-19.65 322.42-24.9 325.92-24.9 326.27-30.15 331.72-32.5 331.72-24.9 337.87-24.9 337.87-19.65 331.72-19.65 331.72-8.25Q331.72-6.08 332.33-5.24 332.94-4.4 334.02-4.4L334.02-4.4Q335.12-4.4 336.34-4.98 337.57-5.55 338.27-6.15L338.27-6.15 339.47-1.1Q338.69-0.55 337.45-0.14 336.22 0.28 334.95 0.51 333.69 0.75 332.87 0.75ZM353.71 0.65L353.71 0.65Q349.51 0.65 346.94-1.11 344.36-2.88 343.19-5.79 342.01-8.7 342.01-12.15L342.01-12.15Q342.01-15.78 343.35-18.81 344.69-21.85 347.28-23.68 349.86-25.5 353.61-25.5L353.61-25.5Q359.21-25.5 361.44-22.26 363.66-19.03 363.66-13.1L363.66-13.1Q363.66-12.58 363.64-11.78 363.61-10.98 363.56-10.4L363.56-10.4 348.56-10.4Q348.71-7.45 350.23-5.78 351.74-4.1 354.76-4.1L354.76-4.1Q356.31-4.1 358.09-4.79 359.86-5.48 360.71-6.45L360.71-6.45 362.71-1.7Q361.71-1.03 359.55-0.19 357.39 0.65 353.71 0.65ZM348.51-14.3L348.51-14.3 357.31-14.3Q357.31-16.93 356.85-18.31 356.39-19.7 355.59-20.23 354.79-20.75 353.76-20.75L353.76-20.75Q351.21-20.75 349.94-18.86 348.66-16.98 348.51-14.3ZM375.56 0L369.31 0 369.31-24.9 374.96-24.9 375.26-20.5Q375.66-21.48 376.5-22.58 377.34-23.68 378.82-24.44 380.31-25.2 382.66-25.2L382.66-25.2Q383.38-25.2 383.94-25.1 384.49-25 384.96-24.8L384.96-24.8 383.56-18.25Q382.76-19.05 381.11-19.05L381.11-19.05Q379.19-19.05 377.96-18.26 376.74-17.48 376.15-16.5 375.56-15.53 375.56-15L375.56-15 375.56 0Z" opacity="1" transform="matrix(1,0,0,1,0,0)" fill="#000000" class="wordmark-text-0" data-fill-palette-color="primary" id="text-0"></path></svg></g></svg></g></svg></g></svg></g><g><svg viewBox="0 0 53.95876641292659 70.19212840336134" height="70.19212840336134" width="53.95876641292659"><g><svg xmlns="http://www.w3.org/2000/svg" xmlns:xlink="http://www.w3.org/1999/xlink" version="1.0" x="0" y="0" viewBox="20.4941406 11.6475716 58.99999999999999 76.7500047" enable-background="new 0 0 100 100" xml:space="preserve" height="70.19212840336134" width="53.95876641292659" class="icon-icon-0" data-fill-palette-color="accent" id="icon-0"><path fill="#ff4136" d="M69.016 11.648h-5H35.974h-5H20.494v35.875 5 35.875h10.48 5H64.016h5 10.478V52.523v-5-35.875H69.016zM63.635 17.338c-0.06 0.257-0.123 0.512-0.197 0.763-0.052 0.175-0.109 0.347-0.167 0.519-0.082 0.243-0.169 0.483-0.264 0.72-0.068 0.168-0.138 0.335-0.211 0.5-0.104 0.234-0.216 0.463-0.333 0.69-0.081 0.157-0.161 0.314-0.247 0.467-0.13 0.23-0.269 0.454-0.411 0.675-0.089 0.139-0.174 0.28-0.267 0.416-0.165 0.239-0.342 0.469-0.522 0.697-0.084 0.107-0.163 0.219-0.25 0.324-0.273 0.327-0.558 0.643-0.859 0.944-0.018 0.018-0.039 0.034-0.057 0.053-0.284 0.281-0.58 0.55-0.887 0.806-0.11 0.091-0.227 0.174-0.339 0.263-0.223 0.175-0.448 0.348-0.682 0.51-0.138 0.095-0.281 0.182-0.422 0.273-0.219 0.14-0.441 0.278-0.668 0.406-0.154 0.087-0.312 0.168-0.47 0.249-0.226 0.116-0.455 0.228-0.689 0.333-0.165 0.074-0.331 0.144-0.498 0.211-0.238 0.095-0.479 0.183-0.723 0.265-0.17 0.058-0.341 0.115-0.514 0.167-0.256 0.076-0.517 0.139-0.779 0.2-0.167 0.039-0.333 0.082-0.503 0.115-0.291 0.057-0.588 0.097-0.885 0.136-0.146 0.019-0.29 0.045-0.438 0.059-0.447 0.043-0.9 0.069-1.359 0.069s-0.911-0.026-1.359-0.069c-0.147-0.014-0.291-0.041-0.436-0.059-0.298-0.038-0.595-0.079-0.887-0.136-0.169-0.033-0.334-0.075-0.5-0.114-0.263-0.061-0.525-0.126-0.783-0.202-0.172-0.051-0.34-0.108-0.509-0.165-0.246-0.083-0.49-0.171-0.729-0.267-0.166-0.067-0.33-0.136-0.492-0.209-0.236-0.105-0.467-0.218-0.696-0.336-0.156-0.08-0.311-0.16-0.463-0.245-0.231-0.13-0.455-0.27-0.678-0.412-0.138-0.089-0.279-0.174-0.413-0.267-0.238-0.164-0.467-0.341-0.694-0.52-0.108-0.085-0.221-0.165-0.327-0.253-0.317-0.264-0.623-0.541-0.915-0.832-0.01-0.009-0.02-0.018-0.03-0.027-0.302-0.302-0.588-0.619-0.861-0.948-0.085-0.102-0.161-0.21-0.243-0.314-0.182-0.231-0.361-0.464-0.528-0.706-0.093-0.134-0.177-0.274-0.266-0.412-0.143-0.223-0.283-0.448-0.413-0.679-0.086-0.153-0.166-0.309-0.245-0.465-0.117-0.228-0.229-0.458-0.334-0.693-0.073-0.164-0.143-0.33-0.211-0.497-0.095-0.237-0.182-0.478-0.264-0.721-0.058-0.172-0.116-0.344-0.167-0.519-0.074-0.251-0.136-0.506-0.197-0.763-0.041-0.174-0.084-0.346-0.118-0.522-0.011-0.056-0.016-0.113-0.026-0.168H63.78c-0.01 0.056-0.015 0.113-0.026 0.168C63.72 16.992 63.676 17.164 63.635 17.338zM36.354 82.705c0.06-0.255 0.122-0.51 0.196-0.76 0.052-0.176 0.11-0.349 0.169-0.522 0.082-0.242 0.169-0.482 0.263-0.718 0.067-0.168 0.137-0.335 0.211-0.5 0.104-0.234 0.216-0.463 0.333-0.69 0.081-0.157 0.161-0.314 0.247-0.468 0.13-0.23 0.269-0.454 0.411-0.675 0.089-0.138 0.174-0.279 0.267-0.415 0.167-0.241 0.345-0.473 0.526-0.703 0.083-0.105 0.159-0.215 0.245-0.317 0.273-0.328 0.559-0.645 0.861-0.948 0.01-0.01 0.02-0.018 0.03-0.027 0.292-0.291 0.598-0.567 0.915-0.831 0.107-0.089 0.22-0.169 0.329-0.256 0.226-0.178 0.454-0.353 0.692-0.517 0.135-0.093 0.276-0.179 0.414-0.268 0.222-0.142 0.446-0.282 0.677-0.411 0.152-0.086 0.308-0.166 0.463-0.246 0.228-0.118 0.46-0.23 0.695-0.336 0.163-0.073 0.327-0.142 0.493-0.209 0.24-0.096 0.484-0.185 0.73-0.267 0.168-0.057 0.336-0.114 0.507-0.165 0.258-0.076 0.52-0.14 0.784-0.202 0.166-0.039 0.331-0.081 0.5-0.114 0.292-0.057 0.589-0.098 0.887-0.136 0.146-0.019 0.289-0.045 0.436-0.059 0.447-0.043 0.9-0.069 1.359-0.069s0.911 0.026 1.359 0.069c0.148 0.014 0.292 0.041 0.438 0.06 0.297 0.038 0.594 0.079 0.885 0.135 0.169 0.033 0.335 0.076 0.503 0.115 0.262 0.061 0.523 0.125 0.78 0.201 0.172 0.051 0.342 0.108 0.511 0.166 0.244 0.083 0.486 0.17 0.725 0.265 0.168 0.067 0.334 0.138 0.499 0.212 0.233 0.104 0.462 0.216 0.688 0.332 0.158 0.081 0.316 0.162 0.47 0.249 0.227 0.128 0.448 0.266 0.667 0.406 0.142 0.091 0.286 0.178 0.424 0.274 0.233 0.161 0.456 0.333 0.679 0.508 0.113 0.089 0.231 0.172 0.341 0.264 0.307 0.256 0.603 0.525 0.887 0.806 0.019 0.018 0.039 0.034 0.057 0.053 0.301 0.301 0.586 0.617 0.859 0.944 0.088 0.106 0.167 0.219 0.252 0.327 0.178 0.227 0.355 0.456 0.519 0.694 0.094 0.136 0.18 0.278 0.27 0.418 0.141 0.221 0.28 0.443 0.409 0.673 0.087 0.154 0.167 0.312 0.248 0.47 0.116 0.226 0.227 0.454 0.331 0.686 0.074 0.166 0.145 0.334 0.213 0.503 0.094 0.236 0.181 0.475 0.263 0.717 0.059 0.173 0.117 0.346 0.168 0.522 0.074 0.25 0.136 0.505 0.196 0.76 0.041 0.174 0.085 0.347 0.119 0.524 0.011 0.055 0.016 0.113 0.026 0.169H36.21c0.01-0.056 0.015-0.113 0.025-0.169C36.27 83.052 36.314 82.879 36.354 82.705zM74.494 83.398h-5.642c-0.034-0.257-0.092-0.505-0.136-0.759-0.044-0.253-0.082-0.508-0.136-0.758-0.079-0.366-0.179-0.724-0.279-1.082-0.062-0.221-0.113-0.445-0.183-0.662-0.133-0.417-0.29-0.823-0.449-1.227-0.059-0.148-0.107-0.302-0.169-0.448-0.233-0.547-0.491-1.081-0.773-1.601-0.055-0.102-0.122-0.197-0.178-0.299-0.234-0.413-0.475-0.82-0.738-1.212-0.114-0.17-0.241-0.33-0.361-0.497-0.223-0.311-0.446-0.622-0.687-0.919-0.146-0.179-0.302-0.348-0.454-0.522-0.234-0.268-0.469-0.534-0.717-0.789-0.17-0.174-0.348-0.339-0.525-0.506-0.249-0.236-0.5-0.47-0.762-0.693-0.19-0.162-0.386-0.317-0.582-0.471-0.266-0.209-0.534-0.412-0.811-0.607-0.207-0.146-0.418-0.287-0.631-0.424-0.283-0.183-0.57-0.357-0.863-0.525-0.221-0.127-0.444-0.251-0.671-0.369-0.301-0.157-0.608-0.302-0.917-0.443-0.231-0.105-0.462-0.211-0.698-0.307-0.322-0.131-0.651-0.247-0.982-0.36-0.236-0.081-0.47-0.166-0.71-0.238-0.349-0.105-0.706-0.189-1.064-0.274-0.232-0.055-0.461-0.118-0.696-0.165-0.399-0.079-0.805-0.132-1.212-0.185-0.202-0.026-0.401-0.065-0.606-0.085-0.615-0.06-1.238-0.095-1.868-0.095s-1.253 0.034-1.868 0.095c-0.205 0.02-0.405 0.059-0.608 0.085-0.406 0.053-0.812 0.107-1.209 0.185-0.237 0.047-0.467 0.11-0.7 0.166-0.356 0.084-0.711 0.169-1.059 0.273-0.242 0.073-0.478 0.158-0.716 0.24-0.328 0.113-0.655 0.228-0.975 0.357-0.238 0.097-0.471 0.203-0.704 0.31-0.307 0.14-0.612 0.284-0.91 0.439-0.23 0.12-0.455 0.245-0.679 0.374-0.29 0.166-0.574 0.339-0.854 0.519-0.216 0.14-0.429 0.282-0.639 0.43-0.274 0.193-0.54 0.394-0.803 0.601-0.199 0.156-0.397 0.313-0.59 0.477-0.259 0.221-0.507 0.452-0.754 0.685-0.179 0.169-0.359 0.336-0.531 0.513-0.247 0.253-0.479 0.517-0.712 0.783-0.153 0.176-0.311 0.346-0.458 0.527-0.241 0.297-0.464 0.607-0.686 0.917-0.119 0.166-0.247 0.326-0.361 0.497-0.268 0.4-0.514 0.815-0.751 1.236-0.052 0.093-0.113 0.18-0.164 0.274-0.283 0.521-0.541 1.058-0.775 1.607-0.055 0.13-0.098 0.267-0.151 0.398-0.168 0.421-0.331 0.844-0.469 1.279-0.065 0.204-0.114 0.415-0.171 0.622-0.104 0.372-0.208 0.745-0.29 1.125-0.051 0.236-0.086 0.477-0.128 0.716-0.046 0.264-0.107 0.524-0.142 0.792h-5.643V52.523H38.776c1.146 5.141 5.737 9 11.218 9s10.073-3.859 11.218-9h13.282V83.398zM55.993 52.523c-0.982 2.346-3.3 4-5.999 4s-5.017-1.654-5.998-4H55.993zM43.996 47.523c0.982-2.346 3.3-4 5.998-4s5.017 1.654 5.999 4H43.996zM61.212 47.523c-1.146-5.141-5.737-9-11.218-9s-10.073 3.859-11.218 9H25.494V16.648h5.644c0.034 0.255 0.091 0.502 0.135 0.753 0.044 0.256 0.083 0.514 0.137 0.767 0.077 0.357 0.175 0.706 0.272 1.056 0.064 0.23 0.118 0.463 0.191 0.69 0.126 0.396 0.276 0.78 0.427 1.164 0.067 0.169 0.121 0.344 0.192 0.511 0.232 0.543 0.487 1.073 0.767 1.589 0.072 0.133 0.157 0.256 0.231 0.387 0.218 0.381 0.44 0.759 0.683 1.122 0.126 0.188 0.266 0.365 0.398 0.549 0.211 0.293 0.421 0.586 0.648 0.865 0.156 0.192 0.323 0.373 0.486 0.559 0.224 0.255 0.448 0.51 0.684 0.753 0.179 0.183 0.366 0.356 0.551 0.532 0.24 0.227 0.482 0.452 0.734 0.667 0.198 0.169 0.401 0.33 0.606 0.49 0.258 0.202 0.519 0.4 0.787 0.589 0.214 0.151 0.431 0.296 0.652 0.438 0.276 0.178 0.556 0.348 0.842 0.512 0.227 0.13 0.455 0.258 0.687 0.379 0.296 0.154 0.598 0.297 0.902 0.435 0.236 0.107 0.471 0.215 0.712 0.313 0.317 0.129 0.641 0.243 0.967 0.355 0.241 0.083 0.479 0.169 0.723 0.242 0.346 0.103 0.698 0.187 1.052 0.271 0.235 0.056 0.467 0.12 0.706 0.167 0.397 0.078 0.802 0.132 1.207 0.185 0.204 0.027 0.404 0.066 0.609 0.085 0.615 0.06 1.237 0.095 1.868 0.095s1.253-0.034 1.868-0.095c0.206-0.02 0.406-0.059 0.61-0.085 0.405-0.053 0.81-0.106 1.207-0.185 0.239-0.047 0.47-0.111 0.705-0.167 0.354-0.084 0.707-0.168 1.052-0.271 0.245-0.073 0.482-0.16 0.723-0.242 0.326-0.112 0.65-0.226 0.968-0.355 0.241-0.098 0.476-0.205 0.711-0.313 0.305-0.139 0.606-0.281 0.902-0.435 0.233-0.121 0.46-0.248 0.688-0.379 0.286-0.164 0.566-0.334 0.842-0.512 0.22-0.142 0.437-0.287 0.651-0.437 0.269-0.19 0.53-0.387 0.789-0.591 0.204-0.16 0.407-0.32 0.604-0.488 0.252-0.215 0.495-0.44 0.735-0.669 0.185-0.175 0.372-0.348 0.551-0.531 0.237-0.243 0.461-0.498 0.685-0.754 0.162-0.185 0.329-0.366 0.485-0.557 0.228-0.281 0.438-0.575 0.649-0.868 0.132-0.183 0.271-0.359 0.397-0.546 0.243-0.364 0.465-0.743 0.683-1.125 0.075-0.13 0.159-0.253 0.231-0.385 0.28-0.516 0.535-1.046 0.767-1.59 0.07-0.164 0.124-0.336 0.19-0.502 0.152-0.387 0.303-0.775 0.43-1.174 0.072-0.224 0.125-0.455 0.188-0.683 0.098-0.352 0.196-0.703 0.274-1.062 0.054-0.252 0.093-0.508 0.137-0.764 0.044-0.252 0.102-0.5 0.136-0.755h5.642v30.875H61.212z" data-fill-palette-color="accent"></path></svg></g></svg></g></svg></g><defs></defs></svg><rect width="395.52" height="60.16088414987391" fill="none" stroke="none" visibility="hidden"></rect></g></svg></g></svg>